# xmcd CD database file
#
# Track frame offsets:
#	150
#	12450
#	27889
#	39819
#	55473
#	71613
#	89803
#	105901
#	121796
#	136644
#	152040
#	164698
#	178441
#	191624
#
# Disc length: 2744 seconds
#
# Revision: 0
# Processed by: cddbd v1.5.2PL0 Copyright (c) Steve Scherf et al.
# Submitted via: CDex 1.40Beta9
#
DISCID=ba0ab60e
DTITLE=Buddy Lewis - Honky Tonk Singer
DYEAR=2006
DGENRE=Country
TTITLE0=I Did - I Will - I Do
TTITLE1=Just To See Me Crawl
TTITLE2=Honky Tonk Singer
TTITLE3=Down In Dallas
TTITLE4=Don't Look Back
TTITLE5=Roads of Mud and Stone
TTITLE6=Once Upon A Broken Heart
TTITLE7=Sumblebum
TTITLE8=Better Times Are Coming
TTITLE9=He Never Was Afraid
TTITLE10=Mirror On The Wall
TTITLE11=This Side of Heaven
TTITLE12=Jeanie
TTITLE13=Adios My Compadre
EXTD=YEAR: 2006 ID3G: 2
EXTT0=
EXTT1=
EXTT2=
EXTT3=
EXTT4=
EXTT5=
EXTT6=
EXTT7=
EXTT8=
EXTT9=
EXTT10=
EXTT11=
EXTT12=
EXTT13=
PLAYORDER=
